#!OML:ASF F:\VICON\USERDATA\INSTALL\rory3\rory3.ASF
:FULLY-SPECIFIED
:DEGREES
214
root -3.05776 15.7586 1.46538 -184.487 58.076 -183.65
lowerback 8.07449 1.35988 -3.01343
upperback -1.46005 1.45765 -1.08007
thorax -6.11041 0.810216 0.370997
lowerneck -12.1772 -7.795 -12.5302
upperneck 23.5956 -9.82575 8.69673
head 10.6644 -4.50045 3.92548
rclavicle -1.99313e-014 1.59028e-014
rhumerus -36.5698 -0.889827 -87.1474
rradius 25.94
rwrist 13.0552
rhand -17.0185 14.7708
rfingers 7.12502
rthumb 9.21752 -15.0077
lclavicle -1.99313e-014 1.59028e-014
lhumerus -37.0457 21.0624 72.7123
lradius 16.308
lwrist -15.6097
lhand -11.9444 12.539
lfingers 7.12502
lthumb 14.1106 42.0399
rfemur -1.60739 -1.09063 19.3665
rtibia 56.4214
rfoot 16.4664 -18.9063
rtoes 4.30649
lfemur -17.0561 -7.07444 -26.776
ltibia 29.0323
lfoot -9.8944 13.6491
ltoes 0.489746
215
root -2.96777 15.7559 1.38373 -185.649 57.8887 -184.877
lowerback 8.20734 1.28972 -3.68008
upperback -1.37785 1.28731 -1.2636
thorax -6.1067 0.748389 0.573824
lowerneck -12.2369 -7.75196 -12.4667
upperneck 23.5042 -9.76317 8.65396
head 10.6282 -4.47268 3.9053
rclavicle 2.13662e-014 1.55052e-014
rhumerus -36.3856 -1.25226 -86.9832
rradius 25.7004
rwrist 13.2835
rhand -17.0365 14.7657
rfingers 7.12502
rthumb 9.20016 -15.0136
lclavicle 2.13662e-014 1.55052e-014
lhumerus -36.693 20.0899 73.364
lradius 16.8822
lwrist -14.3389
lhand -12.0808 12.6149
lfingers 7.12502
lthumb 13.9792 42.1249
rfemur -2.86166 -1.08464 18.6279
rtibia 58.2248
rfoot 17.3354 -19.7518
rtoes 6.22627
lfemur -16.1883 -7.00402 -27.6882
ltibia 28.5943
lfoot -9.97569 13.4486
ltoes -0.556768
216
root -2.87864 15.7535 1.3015 -186.307 57.7934 -185.54
lowerback 8.2595 1.18107 -3.99382
upperback -1.27108 1.10807 -1.38617
thorax -6.02114 0.66859 0.646338
lowerneck -12.3185 -7.65852 -12.3696
upperneck 23.3558 -9.63764 8.62358
head 10.5661 -4.4128 3.89211
rclavicle -3.20168e-014 5.96354e-015
rhumerus -36.0996 -1.78978 -86.7725
rradius 25.3675
rwrist 13.7459
rhand -17.0742 14.9205
rfingers 7.12502
rthumb 9.16371 -14.8604
lclavicle -3.20168e-014 5.96354e-015
lhumerus -36.2512 19.0575 74.0273
lradius 17.3561
lwrist -13.0365
lhand -12.3861 12.6399
lfingers 7.12502
lthumb 13.6849 42.1699
rfemur -4.11545 -1.02705 18.2382
rtibia 59.8498
rfoot 17.5014 -20.1294
rtoes 8.696
lfemur -15.3728 -7.02544 -28.2613
ltibia 28.2043
lfoot -10.1282 13.3644
ltoes -1.12344
217
root -2.78888 15.7487 1.21594 -187.188 57.6869 -186.535
lowerback 8.20932 1.09294 -4.47779
upperback -1.20465 0.943441 -1.54457
thorax -5.92227 0.601765 0.775701
lowerneck -12.334 -7.57589 -12.3117
upperneck 23.2974 -9.51902 8.57212
head 10.5268 -4.36062 3.88024
rclavicle -1.19726e-013 2.40529e-014
rhumerus -35.8887 -2.19297 -86.6201
rradius 25.1013
rwrist 13.767
rhand -17.2918 15.0602
rfingers 7.12502
rthumb 8.95381 -14.7298
lclavicle -1.19726e-013 2.40529e-014
lhumerus -35.8809 18.0655 74.6422
lradius 17.7371
lwrist -12.0414
lhand -12.6677 12.5991
lfingers 7.12502
lthumb 13.4135 42.1472
rfemur -5.34307 -0.99151 17.5972
rtibia 61.2796
rfoot 17.3909 -19.4129
rtoes 8.91481
lfemur -14.6948 -7.01323 -29.0519
ltibia 28.0277
lfoot -10.5315 13.2861
ltoes -0.871284
218
root -2.70039 15.7482 1.12892 -187.657 57.5525 -187.065
lowerback 8.19627 1.02703 -4.65962
upperback -1.1946 0.836089 -1.64666
thorax -5.90077 0.554382 0.785343
lowerneck -12.2766 -7.52858 -12.2958
upperneck 23.3113 -9.45271 8.54364
head 10.5103 -4.33253 3.87928
rclavicle 1.83534e-014 -6.95746e-015
rhumerus -35.8432 -2.54897 -86.4955
rradius 24.9541
rwrist 13.3383
rhand -17.7157 15.0832
rfingers 7.12502
rthumb 8.54474 -14.7239
lclavicle 1.83534e-014 -6.95746e-015
lhumerus -35.5439 17.2193 75.1364
lradius 18.1185
lwrist -11.355
lhand -12.8734 12.5855
lfingers 7.12502
lthumb 13.2153 42.1467
rfemur -6.53168 -0.950017 17.2447
rtibia 62.4884
rfoot 16.6521 -18.1046
rtoes 6.78447
lfemur -14.1579 -6.88256 -29.5789
ltibia 28.072
lfoot -10.9785 13.0428
ltoes -0.945155
219
root -2.61254 15.7508 1.04698 -186.88 57.5441 -186.179
lowerback 8.14682 0.924819 -4.09821
upperback -1.17685 0.761404 -1.5266
thorax -5.8424 0.497398 0.607924
lowerneck -12.2769 -7.47955 -12.237
upperneck 23.3093 -9.37406 8.45537
head 10.492 -4.30138 3.84917
rclavicle 6.87826e-014 -4.17448e-015
rhumerus -35.7232 -3.04173 -86.2348
rradius 24.8158
rwrist 13.3091
rhand -17.8168 15.2075
rfingers 7.12502
rthumb 8.44717 -14.6035
lclavicle 6.87826e-014 -4.17448e-015
lhumerus -35.1232 16.5965 75.5458
lradius 18.5158
lwrist -10.8086
lhand -12.9626 12.7546
lfingers 7.12502
lthumb 13.1292 42.3213
rfemur -7.79205 -0.693208 17.8839
rtibia 63.4807
rfoot 15.2643 -16.5692
rtoes 4.10331
lfemur -13.801 -6.67497 -29.2214
ltibia 28.2434
lfoot -11.6602 12.77
ltoes -0.362173
